<svg width="26" height="26" viewBox="0 0 26 26" fill="none" xmlns="http://www.w3.org/2000/svg">
<mask id="mask0_762_1322" style="mask-type:alpha" maskUnits="userSpaceOnUse" x="2" y="2" width="22" height="22">
<path fill-rule="evenodd" clip-rule="evenodd" d="M2.16675 2.16667H23.2666V23.2667H2.16675V2.16667Z" fill="white"/>
</mask>
<g mask="url(#mask0_762_1322)">
<path fill-rule="evenodd" clip-rule="evenodd" d="M12.7171 3.79167C7.7955 3.79167 3.7915 7.79458 3.7915 12.7162C3.7915 17.6378 7.7955 21.6417 12.7171 21.6417C17.6376 21.6417 21.6416 17.6378 21.6416 12.7162C21.6416 7.79458 17.6376 3.79167 12.7171 3.79167ZM12.7171 23.2667C6.89959 23.2667 2.1665 18.5337 2.1665 12.7162C2.1665 6.89867 6.89959 2.16667 12.7171 2.16667C18.5346 2.16667 23.2666 6.89867 23.2666 12.7162C23.2666 18.5337 18.5346 23.2667 12.7171 23.2667Z" fill="#130F26"/>
</g>
<mask id="mask1_762_1322" style="mask-type:alpha" maskUnits="userSpaceOnUse" x="18" y="19" width="7" height="6">
<path fill-rule="evenodd" clip-rule="evenodd" d="M18.6768 19.1826H24.1195V24.6153H18.6768V19.1826Z" fill="white"/>
</mask>
<g mask="url(#mask1_762_1322)">
<path fill-rule="evenodd" clip-rule="evenodd" d="M23.3072 24.6153C23.1003 24.6153 22.8923 24.5362 22.733 24.378L18.9154 20.5712C18.5979 20.2538 18.5969 19.7392 18.9143 19.4218C19.2306 19.1022 19.7452 19.1043 20.0637 19.4196L23.8814 23.2275C24.1988 23.5449 24.1999 24.0584 23.8824 24.3758C23.7243 24.5362 23.5152 24.6153 23.3072 24.6153Z" fill="#130F26"/>
</g>
</svg>
