<svg id="Главный_логотип" data-name="Главный логотип" xmlns="http://www.w3.org/2000/svg" viewBox="0 0 1535.08 241.32"><defs><style>.cls-1{fill:#00b6a4;}.cls-2{fill:#005b60;}.cls-3{fill:#fbb255;}.cls-4{font-size:168px;font-family:Gilroy-Bold, Gilroy;font-weight:700;}.cls-5{letter-spacing:-0.03em;}.cls-6{letter-spacing:-0.01em;}.cls-7{letter-spacing:-0.01em;}.cls-8{letter-spacing:-0.01em;}.cls-9{letter-spacing:-0.02em;}.cls-10{letter-spacing:-0.01em;}.cls-11{letter-spacing:-0.01em;}.cls-12{font-size:120px;}.cls-13{letter-spacing:-0.02em;}.cls-14{letter-spacing:-0.01em;}</style></defs><g id="Логотип"><path class="cls-1" d="M205.4,197.8a139.3,139.3,0,0,0-16.16-34.31A140.12,140.12,0,0,1,19,110l-1.91.8A28,28,0,0,0,0,136.6v61.65a43.07,43.07,0,0,0,43.07,43.07H165.18a43,43,0,0,0,39.07-25A25.77,25.77,0,0,0,205.4,197.8Z"/><path class="cls-2" d="M19,110a140.11,140.11,0,0,0,170.23,53.45A140.07,140.07,0,0,0,19,110Z"/><path class="cls-3" d="M208.25,76.14a43.07,43.07,0,0,0-43.07-43.07H43.07A43,43,0,0,0,5.76,54.63,28.68,28.68,0,0,0,3.62,78.09,139.11,139.11,0,0,0,19,110a140.07,140.07,0,0,1,170.23,53.45c1.53-.63,3-1.27,4.54-2a24.52,24.52,0,0,0,14.47-22.34Z"/><path class="cls-3" d="M165.2,16.37C162.27,7.16,153,.73,142.6.73H66.32C56.55.73,47.15,7.15,44,16a6.46,6.46,0,0,0,.81,6,7.86,7.86,0,0,0,6.5,3.22h.47a7.49,7.49,0,0,0,7-4.59,8.85,8.85,0,0,1,7.55-5.18H142.6c2.35,0,6.31,1.33,7.61,5a7.63,7.63,0,0,0,7.31,4.79h.25A8,8,0,0,0,164.24,22,6.27,6.27,0,0,0,165.2,16.37Z"/></g><text class="cls-4" transform="translate(308.11 194.94)"><tspan class="cls-5">C</tspan><tspan class="cls-6" x="117.1" y="0">h</tspan><tspan class="cls-7" x="211.76" y="0">e</tspan><tspan class="cls-8" x="307.17" y="0">m</tspan><tspan class="cls-9" x="448.14" y="0">o</tspan><tspan class="cls-10" x="545.27" y="0">d</tspan><tspan class="cls-11" x="648.15" y="0">a</tspan><tspan x="751" y="0">n</tspan><tspan class="cls-12" x="847.94" y="0"> </tspan><tspan class="cls-13" x="877.94" y="0">C</tspan><tspan class="cls-14" x="996.93" y="0">R</tspan><tspan x="1098.74" y="0">M</tspan></text></svg>