<svg id="Главный_логотип" data-name="Главный логотип" xmlns="http://www.w3.org/2000/svg" viewBox="0 0 250.39 250.39"><defs><style>.cls-1{fill:#00b6a4;}.cls-2{fill:#005b60;}.cls-3{fill:#fbb255;}</style></defs><g id="Логотип"><path class="cls-1" d="M247,198.06a167.44,167.44,0,0,0-19.42-41.25A167.86,167.86,0,0,1,164,169.21,168.14,168.14,0,0,1,22.86,92.55l-2.3,1A33.7,33.7,0,0,0,0,124.48v74.13a51.78,51.78,0,0,0,51.78,51.78H198.61a51.78,51.78,0,0,0,47-30A31.06,31.06,0,0,0,247,198.06Z"/><path class="cls-2" d="M22.86,92.55A168.14,168.14,0,0,0,164,169.21a167.86,167.86,0,0,0,63.51-12.4A168.41,168.41,0,0,0,22.86,92.55Z"/><path class="cls-3" d="M250.39,51.78A51.78,51.78,0,0,0,198.61,0H51.78A51.73,51.73,0,0,0,6.93,25.92,34.54,34.54,0,0,0,4.35,54.13,167.57,167.57,0,0,0,22.86,92.55a168.41,168.41,0,0,1,204.68,64.26q2.75-1.12,5.45-2.34a29.47,29.47,0,0,0,17.4-26.86Z"/></g></svg>